<svg width="18" height="15" viewBox="0 0 18 15" fill="none" xmlns="http://www.w3.org/2000/svg">
<path d="M0.396208 0.573599C0.649976 0.206324 0.994114 0 1.35294 0C1.71177 0 2.05591 0.206324 2.30968 0.573599L9.00817 10.2711L15.7067 0.573599C15.9619 0.216732 16.3037 0.0192661 16.6585 0.0237293C17.0133 0.0281935 17.3527 0.23423 17.6036 0.597463C17.8545 0.960696 17.9969 1.45206 17.9999 1.96573C18.003 2.4794 17.8666 2.97428 17.6201 3.34377L9.9649 14.4264C9.71113 14.7937 9.367 15 9.00817 15C8.64934 15 8.3052 14.7937 8.05144 14.4264L0.396208 3.34377C0.142516 2.97638 0 2.47817 0 1.95868C0 1.4392 0.142516 0.940984 0.396208 0.573599Z" fill="#997567"/>
</svg>
