<svg width="1436" height="1020" viewBox="0 0 1436 1020" fill="none" xmlns="http://www.w3.org/2000/svg">
<g filter="url(#filter0_i_2_5)">
<path d="M612.987 66.3271L657.832 39.6108C670.958 31.7908 679 17.6394 679 2.3601C679 -21.587 659.587 -41 635.64 -41H81.0461C-44.4247 -41 -146.744 59.5602 -148.919 185.012L-158.775 753.355C-161.068 885.579 -51.6535 992.498 80.483 987.155L1082.17 946.651C1109.18 945.559 1136.17 949.236 1161.9 957.512L1342.55 1015.63C1379.45 1027.49 1419.06 1007.63 1431.61 970.966C1445.92 929.207 1419.12 884.642 1375.53 877.693L1321 869L1167.29 856.579C1138.64 854.264 1111.65 842.167 1090.86 822.317C1082.99 814.804 1076.13 806.299 1070.45 797.014L1069.66 795.723C1061.29 782.015 1055.39 766.939 1052.24 751.186L1050.28 741.392C1044.18 710.914 1030.82 682.357 1011.34 658.145L975 613L923.629 555.585C912.575 543.231 900.219 532.109 886.774 522.411L811.332 467.994C793.997 455.489 774.086 447.016 753.056 443.192L732.586 439.47C709.73 435.315 689.325 422.584 675.544 403.881C671.197 397.982 666.154 392.629 660.525 387.937L631.14 363.45C600.887 338.239 577.614 305.683 563.55 268.9L559 257L551.266 232.692C538.413 192.298 544.001 148.294 566.542 112.395L567.677 110.589C579.063 92.4557 594.592 77.2856 612.987 66.3271Z" fill="#DBA046"/>
</g>
<defs>
<filter id="filter0_i_2_5" x="-175.81" y="-41" width="1611.3" height="1064.06" filterUnits="userSpaceOnUse" color-interpolation-filters="sRGB">
<feFlood flood-opacity="0" result="BackgroundImageFix"/>
<feBlend mode="normal" in="SourceGraphic" in2="BackgroundImageFix" result="shape"/>
<feColorMatrix in="SourceAlpha" type="matrix" values="0 0 0 0 0 0 0 0 0 0 0 0 0 0 0 0 0 0 127 0" result="hardAlpha"/>
<feOffset dx="-17" dy="4"/>
<feGaussianBlur stdDeviation="16.5"/>
<feComposite in2="hardAlpha" operator="arithmetic" k2="-1" k3="1"/>
<feColorMatrix type="matrix" values="0 0 0 0 0 0 0 0 0 0 0 0 0 0 0 0 0 0 0.06 0"/>
<feBlend mode="normal" in2="shape" result="effect1_innerShadow_2_5"/>
</filter>
</defs>
</svg>
