<svg width="24" height="24" viewBox="0 0 24 24" fill="none" xmlns="http://www.w3.org/2000/svg">
<path d="M12 0C4.822 0 0 4.43 0 8.568C0 10.014 0.775 11.192 2 11.713V20C2 22.206 3.794 24 6 24H18C20.206 24 22 22.206 22 20V11.713C23.225 11.192 24 10.014 24 8.568C24 4.43 19.178 0 12 0ZM12 2C18.438 2 22 5.883 22 8.568C22 9.336 21.567 9.863 20.844 9.977L20 10.11V20C20 21.103 19.103 22 18 22H6C4.897 22 4 21.103 4 20V10.111L3.156 9.979C2.433 9.864 2 9.336 2 8.569C2 5.882 5.562 2 12 2Z" fill="white"/>
</svg>
